<?xml version="1.0" encoding="UTF-8"?>
<svg id="Layer_1" xmlns="http://www.w3.org/2000/svg" version="1.1" viewBox="0 0 1300.08 900">
  <!-- Generator: Adobe Illustrator 29.7.1, SVG Export Plug-In . SVG Version: 2.1.1 Build 8)  -->
  <defs>
    <style>
      .st0 {
        fill: #fff;
      }
    </style>
  </defs>
  <path class="st0" d="M491.13,382.64h-62.39c-13.77,0-24.94,11.16-24.94,24.94v234.32h89.41c13.77,0,24.94-11.16,24.94-24.94v-210.62c0-13.09,10.61-23.7,23.7-23.7h0c9.05,0,17.31,5.16,21.29,13.29l109.65,224.19c6.52,13.32,20.05,21.77,34.88,21.77h0c14.35,0,27.53-7.91,34.27-20.58l47.91-89.93c3.49-6.54,10.3-10.63,17.71-10.63h63.77c13.77,0,24.94-11.16,24.94-24.94v-237.71h-90.54c-13.77,0-24.94,11.16-24.94,24.94v211.73c0,13.1-10.62,23.72-23.72,23.72h0c-9.04,0-17.3-5.14-21.29-13.26l-110.85-225.62c-6.47-13.17-19.86-21.51-34.53-21.51h0c-14.47,0-27.72,8.12-34.29,21.02l-47.12,92.55c-3.42,6.73-10.33,10.96-17.88,10.96Z"/>
</svg>