<?xml version="1.0" encoding="UTF-8"?>
<svg id="Layer_1" xmlns="http://www.w3.org/2000/svg" xmlns:xlink="http://www.w3.org/1999/xlink" version="1.1" viewBox="0 0 1300.08 900">
  <!-- Generator: Adobe Illustrator 29.7.1, SVG Export Plug-In . SVG Version: 2.1.1 Build 8)  -->
  <defs>
    <style>
      .st0 {
        fill: url(#linear-gradient);
      }
    </style>
    <linearGradient id="linear-gradient" x1="169.85" y1="450" x2="402.85" y2="450" gradientUnits="userSpaceOnUse">
      <stop offset="0" stop-color="#b1ff9b"/>
      <stop offset="1" stop-color="#89f0ff"/>
    </linearGradient>
  </defs>
  <g>
    <g>
      <path d="M630.85,538.23h-32.39l-98.25-131.28h-.85v131.28h-28.13v-172.62h31.75l98.89,132.77h.85v-132.77h28.13v172.62Z"/>
      <path d="M715.16,540.57c-17.05,0-30.3-4.62-39.75-13.85-9.45-9.23-14.17-21.81-14.17-37.72v-78.64h28.98v72.89c0,21.17,10.72,31.75,32.18,31.75,10.94,0,19.43-2.84,25.47-8.52,6.04-5.68,9.06-13.64,9.06-23.87v-72.25h28.98v98.67h14.7v29.2h-30.05v-20.25h-8.95c-4.83,7.39-11.01,13-18.54,16.84-7.53,3.84-16.84,5.75-27.92,5.75Z"/>
      <path d="M822.48,538.23v-179.02h28.98v179.02h-28.98Z"/>
      <path d="M880.79,538.23v-179.02h28.98v179.02h-28.98Z"/>
      <path d="M997.49,540.79c-13.5,0-25.25-2.74-35.27-8.21-10.02-5.47-17.73-13.21-23.12-23.23-5.4-10.02-8.1-21.85-8.1-35.48s2.67-25.18,7.99-35.06c5.33-9.87,12.89-17.51,22.7-22.91,9.8-5.4,21.38-8.1,34.74-8.1,19.04,0,34.13,5.58,45.29,16.73,11.15,11.16,16.73,26.32,16.73,45.5v10.65h-99.74c.99,11.65,4.87,20.64,11.62,26.96,6.75,6.32,15.73,9.48,26.96,9.48,16.62,0,26.99-6.25,31.12-18.75h29.41c-3.13,13.36-9.98,23.76-20.57,31.22-10.59,7.46-23.84,11.19-39.75,11.19ZM959.56,460.44h71.18c-1.14-9.38-4.69-16.58-10.66-21.63-5.97-5.04-13.85-7.57-23.65-7.57s-17.9,2.53-24.29,7.57c-6.39,5.05-10.59,12.25-12.58,21.63Z"/>
    </g>
    <path d="M1087.7,518.57c0-13.2,9.59-22.22,21.32-22.22s21.21,9.02,21.21,22.22-9.59,22.22-21.21,22.22-21.32-9.02-21.32-22.22ZM1125.71,518.57c0-10.6-7.22-18.16-16.69-18.16s-16.81,7.56-16.81,18.16,7.33,18.05,16.81,18.05,16.69-7.33,16.69-18.05ZM1100.79,506.84h8.57c4.74,0,8.91,1.92,8.91,7.33,0,2.71-1.69,5.3-4.29,6.2l5.19,9.36h-5.19l-3.95-7.89h-4.62v7.89h-4.63v-22.9ZM1108.34,518.23c3.05,0,4.85-1.35,4.85-3.84,0-2.14-1.24-3.72-4.62-3.72h-3.16v7.56h2.93Z"/>
  </g>
  <path class="st0" d="M211.17,418.13h-29.52c-6.52,0-11.8,5.28-11.8,11.8v110.86h42.3c6.52,0,11.8-5.28,11.8-11.8v-99.64c0-6.19,5.02-11.21,11.21-11.21h0c4.28,0,8.19,2.44,10.07,6.29l51.88,106.07c3.08,6.3,9.49,10.3,16.5,10.3h0c6.79,0,13.02-3.74,16.22-9.73l22.66-42.55c1.65-3.1,4.87-5.03,8.38-5.03h30.17c6.52,0,11.8-5.28,11.8-11.8v-112.46h-42.83c-6.52,0-11.8,5.28-11.8,11.8v100.17c0,6.2-5.02,11.22-11.22,11.22h0c-4.28,0-8.18-2.43-10.07-6.27l-52.44-106.74c-3.06-6.23-9.4-10.18-16.34-10.18h0c-6.85,0-13.11,3.84-16.22,9.94l-22.29,43.79c-1.62,3.18-4.89,5.19-8.46,5.19Z"/>
</svg>