<?xml version="1.0" encoding="UTF-8"?>
<svg id="Layer_1" xmlns="http://www.w3.org/2000/svg" version="1.1" viewBox="0 0 1300.08 900">
  <!-- Generator: Adobe Illustrator 29.7.1, SVG Export Plug-In . SVG Version: 2.1.1 Build 8)  -->
  <g>
    <path d="M431.98,563.26h-41.58l-126.11-168.52h-1.09v168.52h-36.11v-221.59h40.76l126.94,170.44h1.1v-170.44h36.11v221.59Z"/>
    <path d="M540.2,566.27c-21.88,0-38.89-5.93-51.02-17.78-12.13-11.85-18.19-27.99-18.19-48.42v-100.95h37.21v93.56c0,27.18,13.77,40.76,41.31,40.76,14.04,0,24.94-3.64,32.69-10.94,7.75-7.29,11.63-17.51,11.63-30.64v-92.74h37.21v126.66h18.87v37.48h-38.57v-25.99h-11.49c-6.2,9.48-14.13,16.69-23.8,21.61-9.67,4.92-21.61,7.39-35.84,7.39Z"/>
    <path d="M677.97,563.26v-229.8h37.2v229.8h-37.2Z"/>
    <path d="M752.82,563.26v-229.8h37.2v229.8h-37.2Z"/>
    <path d="M902.62,566.54c-17.33,0-32.42-3.51-45.28-10.53-12.86-7.02-22.75-16.96-29.68-29.82-6.93-12.86-10.4-28.04-10.4-45.55s3.42-32.32,10.26-45c6.84-12.67,16.55-22.47,29.14-29.41,12.58-6.93,27.45-10.4,44.59-10.4,24.44,0,43.81,7.16,58.13,21.48,14.31,14.32,21.48,33.79,21.48,58.41v13.68h-128.03c1.27,14.96,6.25,26.5,14.91,34.61,8.66,8.12,20.2,12.18,34.6,12.18,21.34,0,34.65-8.02,39.94-24.07h37.75c-4.02,17.14-12.82,30.5-26.4,40.08-13.59,9.57-30.6,14.36-51.02,14.36ZM853.92,463.4h91.37c-1.46-12.04-6.02-21.29-13.68-27.77-7.66-6.47-17.78-9.71-30.36-9.71s-22.98,3.24-31.19,9.71c-8.21,6.48-13.59,15.73-16.14,27.77Z"/>
  </g>
  <path d="M1018.42,538.02c0-16.94,12.31-28.52,27.36-28.52s27.22,11.58,27.22,28.52-12.31,28.52-27.22,28.52-27.36-11.58-27.36-28.52ZM1067.22,538.02c0-13.61-9.27-23.31-21.43-23.31s-21.57,9.7-21.57,23.31,9.41,23.17,21.57,23.17,21.43-9.41,21.43-23.17ZM1035.22,522.96h11.01c6.08,0,11.44,2.46,11.44,9.41,0,3.48-2.17,6.81-5.5,7.96l6.66,12.02h-6.66l-5.07-10.13h-5.93v10.13h-5.94v-29.39ZM1044.92,537.58c3.91,0,6.23-1.74,6.23-4.92,0-2.75-1.59-4.78-5.93-4.78h-4.05v9.7h3.76Z"/>
</svg>